<?xml version="1.0" encoding="UTF-8" standalone="no"?>
<!-- Created with Inkscape (http://www.inkscape.org/) -->

<svg
   xmlns:dc="http://purl.org/dc/elements/1.1/"
   xmlns:cc="http://creativecommons.org/ns#"
   xmlns:rdf="http://www.w3.org/1999/02/22-rdf-syntax-ns#"
   xmlns:svg="http://www.w3.org/2000/svg"
   xmlns="http://www.w3.org/2000/svg"
   xmlns:xlink="http://www.w3.org/1999/xlink"
   xmlns:sodipodi="http://sodipodi.sourceforge.net/DTD/sodipodi-0.dtd"
   xmlns:inkscape="http://www.inkscape.org/namespaces/inkscape"
   id="svg2"
   version="1.1"
   inkscape:version="0.48.3.1 r9886"
   width="230.095"
   height="92.303398"
   xml:space="preserve"
   sodipodi:docname="logo.svg"><metadata
     id="metadata8"><rdf:RDF><cc:Work
         rdf:about=""><dc:format>image/svg+xml</dc:format><dc:type
           rdf:resource="http://purl.org/dc/dcmitype/StillImage" /><dc:title /></cc:Work></rdf:RDF></metadata><defs
     id="defs6"><linearGradient
       id="linearGradient4414"><stop
         style="stop-color:#000000;stop-opacity:1;"
         offset="0"
         id="stop4416" /><stop
         style="stop-color:#000000;stop-opacity:0;"
         offset="1"
         id="stop4418" /></linearGradient><linearGradient
       inkscape:collect="always"
       id="linearGradient4402"><stop
         style="stop-color:#000000;stop-opacity:1;"
         offset="0"
         id="stop4404" /><stop
         style="stop-color:#000000;stop-opacity:0;"
         offset="1"
         id="stop4406" /></linearGradient><clipPath
       clipPathUnits="userSpaceOnUse"
       id="clipPath16"><path
         d="m 0,841.89 595.28,0 L 595.28,0 0,0 0,841.89 z"
         id="path18"
         inkscape:connector-curvature="0" /></clipPath><linearGradient
       inkscape:collect="always"
       xlink:href="#linearGradient4402"
       id="linearGradient4408"
       x1="224.38333"
       y1="373.95551"
       x2="212.5883"
       y2="374.92285"
       gradientUnits="userSpaceOnUse"
       gradientTransform="translate(0.4,14.2994)" /><linearGradient
       inkscape:collect="always"
       xlink:href="#linearGradient4414"
       id="linearGradient4420"
       x1="190.2908"
       y1="81.1034"
       x2="210.1929"
       y2="81.103401"
       gradientUnits="userSpaceOnUse" /><linearGradient
       inkscape:collect="always"
       xlink:href="#linearGradient4402"
       id="linearGradient4422"
       gradientUnits="userSpaceOnUse"
       gradientTransform="translate(0.4,14.2994)"
       x1="224.38333"
       y1="373.95551"
       x2="212.5883"
       y2="374.92285" /></defs><sodipodi:namedview
     pagecolor="#ffffff"
     bordercolor="#666666"
     borderopacity="1"
     objecttolerance="10"
     gridtolerance="10"
     guidetolerance="10"
     inkscape:pageopacity="0"
     inkscape:pageshadow="2"
     inkscape:window-width="1362"
     inkscape:window-height="748"
     id="namedview4"
     showgrid="false"
     fit-margin-top="0"
     fit-margin-left="0"
     fit-margin-right="0"
     fit-margin-bottom="0"
     inkscape:zoom="2.3552116"
     inkscape:cx="142.85378"
     inkscape:cy="2.7486344"
     inkscape:window-x="0"
     inkscape:window-y="18"
     inkscape:window-maximized="0"
     inkscape:current-layer="g12"
     inkscape:snap-bbox="true"
     inkscape:bbox-paths="true"
     inkscape:snap-bbox-edge-midpoints="true"
     inkscape:bbox-nodes="true"
     inkscape:snap-bbox-midpoints="true"
     inkscape:object-paths="true"
     inkscape:object-nodes="true"
     inkscape:snap-intersection-paths="true"
     inkscape:snap-smooth-nodes="true"
     inkscape:snap-midpoints="true"
     inkscape:snap-object-midpoints="true"
     inkscape:snap-center="true"
     inkscape:snap-page="true" /><g
     id="g10"
     inkscape:groupmode="layer"
     inkscape:label="ADAIMY STUDIOS"
     transform="matrix(1.25,0,0,-1.25,-146.05394,885.0943)"><g
       id="g12"
       transform="translate(-88.538044,251.03762)"><rect
         style="opacity:1;color:#000000;fill:#ffffff;fill-opacity:1;fill-rule:nonzero;stroke:none;marker:none;visibility:visible;display:inline;overflow:visible;enable-background:accumulate"
         id="rect4440"
         width="143.12674"
         height="19.19375"
         x="47.129524"
         y="63.312775"
         transform="matrix(0.8,0,0,-0.8,205.3812,457.03782)" /><path
         d="m 348.5762,394.3916 c -0.631,-0.55 -1.479,-0.824 -2.543,-0.824 -0.754,0 -1.4,0.129 -1.939,0.386 -0.539,0.261 -0.941,0.633 -1.206,1.122 l 1.172,1.338 c 0.147,-0.368 0.387,-0.657 0.713,-0.868 0.326,-0.212 0.695,-0.318 1.102,-0.318 0.494,0 0.883,0.119 1.17,0.353 0.287,0.235 0.429,0.551 0.429,0.948 0,0.467 -0.476,0.935 -1.431,1.399 -0.31,0.15 -0.554,0.271 -0.734,0.366 -0.859,0.45 -1.455,0.887 -1.786,1.316 -0.33,0.427 -0.497,0.938 -0.497,1.53 0,0.813 0.323,1.479 0.968,2.002 0.644,0.521 1.481,0.783 2.51,0.783 0.597,0 1.113,-0.104 1.547,-0.312 0.432,-0.21 0.816,-0.537 1.147,-0.983 l -1.255,-1.183 c -0.147,0.285 -0.346,0.498 -0.59,0.636 -0.245,0.141 -0.54,0.211 -0.884,0.211 -0.418,0 -0.754,-0.105 -1.011,-0.312 -0.256,-0.209 -0.384,-0.479 -0.384,-0.809 0,-0.521 0.507,-0.996 1.52,-1.424 0.201,-0.086 0.356,-0.152 0.464,-0.203 0.837,-0.383 1.457,-0.812 1.86,-1.294 0.404,-0.481 0.605,-1.028 0.605,-1.644 0,-0.927 -0.316,-1.664 -0.947,-2.216 m -14.934,2.347 c -0.261,-0.628 -0.64,-1.181 -1.134,-1.658 -0.513,-0.488 -1.088,-0.864 -1.731,-1.125 -0.641,-0.258 -1.306,-0.388 -1.994,-0.388 -0.602,0 -1.19,0.101 -1.768,0.305 -0.577,0.205 -1.106,0.498 -1.585,0.878 -0.622,0.495 -1.095,1.085 -1.425,1.772 -0.33,0.687 -0.496,1.426 -0.496,2.217 0,0.707 0.131,1.373 0.391,1.996 0.261,0.621 0.642,1.174 1.145,1.659 0.494,0.479 1.068,0.852 1.721,1.118 0.652,0.264 1.326,0.397 2.017,0.397 0.688,0 1.355,-0.133 2.004,-0.397 0.649,-0.266 1.222,-0.639 1.721,-1.118 0.498,-0.485 0.879,-1.039 1.138,-1.663 0.261,-0.625 0.391,-1.289 0.391,-1.992 0,-0.707 -0.131,-1.372 -0.395,-2.001 m -19.681,-2.91 -2.109,0 0,9.865 2.109,0 0,-9.865 z m -12.099,2.584 c -0.315,-0.676 -0.774,-1.234 -1.38,-1.674 -0.449,-0.325 -0.947,-0.558 -1.499,-0.699 -0.55,-0.141 -1.354,-0.211 -2.413,-0.211 l -0.748,0 -2.107,0 0,9.866 2.687,0 c 1.059,0 1.894,-0.074 2.504,-0.223 0.611,-0.148 1.147,-0.396 1.609,-0.742 0.598,-0.443 1.049,-1.005 1.358,-1.68 0.307,-0.677 0.461,-1.445 0.461,-2.308 0,-0.877 -0.157,-1.653 -0.472,-2.329 m -18.064,1.139 c 0,-1.338 -0.353,-2.336 -1.057,-2.995 -0.705,-0.661 -1.765,-0.989 -3.183,-0.989 -1.44,0 -2.512,0.328 -3.215,0.989 -0.705,0.659 -1.057,1.657 -1.057,2.995 l 0,6.143 2.093,0 0,-5.812 c 0,-0.813 0.18,-1.425 0.538,-1.837 0.359,-0.411 0.895,-0.617 1.608,-0.617 0.717,0 1.26,0.206 1.627,0.62 0.368,0.413 0.552,1.025 0.552,1.834 l 0,5.812 2.094,0 0,-6.143 z m -17.568,4.358 -2.416,0 0,-8.081 -2.109,0 0,8.081 -2.417,0 0,1.785 6.942,0 0,-1.785 z m -16.5,-7.518 c -0.631,-0.55 -1.478,-0.824 -2.543,-0.824 -0.754,0 -1.401,0.129 -1.94,0.386 -0.538,0.261 -0.94,0.633 -1.205,1.122 l 1.172,1.338 c 0.148,-0.368 0.385,-0.657 0.713,-0.868 0.327,-0.212 0.694,-0.318 1.102,-0.318 0.493,0 0.882,0.119 1.169,0.353 0.287,0.235 0.431,0.551 0.431,0.948 0,0.467 -0.478,0.935 -1.433,1.399 -0.308,0.15 -0.553,0.271 -0.733,0.366 -0.859,0.45 -1.454,0.887 -1.785,1.316 -0.331,0.427 -0.498,0.938 -0.498,1.53 0,0.813 0.323,1.479 0.967,2.002 0.645,0.521 1.482,0.783 2.511,0.783 0.597,0 1.112,-0.104 1.546,-0.312 0.434,-0.21 0.816,-0.537 1.149,-0.983 l -1.256,-1.183 c -0.148,0.285 -0.344,0.498 -0.589,0.636 -0.245,0.141 -0.54,0.211 -0.886,0.211 -0.418,0 -0.754,-0.105 -1.01,-0.312 -0.256,-0.209 -0.384,-0.479 -0.384,-0.809 0,-0.521 0.506,-0.996 1.519,-1.424 0.203,-0.086 0.357,-0.152 0.465,-0.203 0.837,-0.383 1.457,-0.812 1.86,-1.294 0.402,-0.481 0.604,-1.028 0.604,-1.644 0,-0.927 -0.315,-1.664 -0.946,-2.216 m 139.727,6.684 -20.317,0 0,5.312 -142.848,0 0,-5.312 -20.911,0 9.892,-10.043 -9.892,-7.798 31.495,0 0,7.798 120.71,0 0,-7.798 31.871,0 -10.391,7.798 10.391,10.043 z m -92.463,0.834 -1.172,0 0,-6.295 1.172,0 c 1.103,0 1.908,0.25 2.412,0.754 0.505,0.503 0.758,1.3 0.758,2.392 0,1.088 -0.253,1.883 -0.758,2.391 -0.504,0.504 -1.309,0.758 -2.412,0.758 m 31.789,0.138 c -0.893,0 -1.633,-0.318 -2.222,-0.953 -0.589,-0.635 -0.882,-1.421 -0.882,-2.359 0,-0.951 0.29,-1.738 0.87,-2.36 0.578,-0.621 1.323,-0.931 2.234,-0.931 0.894,0 1.631,0.312 2.212,0.939 0.581,0.625 0.872,1.41 0.872,2.352 0,0.933 -0.295,1.719 -0.882,2.356 -0.589,0.638 -1.322,0.956 -2.202,0.956"
         style="fill:#d2232a;fill-opacity:1;fill-rule:nonzero;stroke:none"
         id="path22"
         inkscape:connector-curvature="0" /><g
         id="g4424"
         style="fill:#000000;fill-opacity:1"><g
           style="fill:#000000;fill-opacity:1"
           id="g24"
           transform="translate(293.6621,425.8501)"><path
             d="M 0,0 C -0.896,0.12 -2.967,0.078 -2.967,0.078 -2.492,1.56 -2.152,3.075 -1.951,4.616 -0.465,2.983 1.081,1.255 2.743,-0.18 1.984,-0.019 0.896,-0.12 0,0 m 18.47,-6.967 c -1.718,2.403 -20.614,19.122 -22.989,18.331 -2.438,-0.813 -5.853,-20.36 -3.942,-21.317 2.148,-1.077 4.16,4.376 4.378,5.773 3.997,-0.57 8.687,-1.686 12.462,-0.578 2.12,-1.913 15.197,-9.384 10.091,-2.209"
             style="fill:#000000;fill-opacity:1;fill-rule:nonzero;stroke:none"
             id="path26"
             inkscape:connector-curvature="0" /></g><g
           style="fill:#000000;fill-opacity:1"
           id="g28"
           transform="translate(355.4648,420.8618)"><path
             d="m 0,0 c -6.496,9.434 -24.743,30.698 -19.986,6.36 -2.512,1.885 -12.593,11.783 -14.719,8.807 -1.914,-2.68 5.017,-20.772 7.375,-20.181 1.908,0.475 -1.131,11.793 -1.254,13.613 7.91,-4.836 15.563,-13.483 12.121,2.389 C -13.111,7.366 -2.628,-7.947 2.049,-3.462 1.814,-1.9 0.853,-1.218 0,0"
             style="fill:#000000;fill-opacity:1;fill-rule:nonzero;stroke:none"
             id="path30"
             inkscape:connector-curvature="0" /></g><g
           style="fill:#000000;fill-opacity:1"
           id="g32"
           transform="translate(221.0464,429.7495)"><path
             d="M 0,0 C 0.856,3.446 8.787,14.836 9.477,16.774 11.074,9.617 12.565,5.592 13.856,1.213 m 13.493,-3.21 c 0,3.528 -5.042,3.16 -7.52,3.308 -2.441,6.365 -4.555,12.785 -5.697,19.472 -0.319,1.872 -0.466,5.565 -2.851,6.371 C 8.425,28.118 6.65,23.636 5.595,21.903 2.277,16.458 -0.958,11.013 -3.939,5.396 -5.41,2.622 -5.734,1.68 -6.694,-0.62 c -4.366,-1.412 -6.448,-3.387 -7.186,-5.361 -0.638,-1.704 2.231,-1.823 3.323,-1.554 -1.151,-2.309 -2.303,-4.624 -3.336,-6.981 -1.445,-3.299 1.254,-2.965 3.261,-0.911 2.38,2.436 4.193,5.585 6.356,8.176 2.112,0.623 6.446,0.956 8.867,1.072 4.116,0.196 7.094,0.268 11.213,0.268 1.007,-1.199 3.408,-6.277 3.828,-7.264 0.654,-1.54 1.275,-3.105 3.191,-3.782 2.413,-0.852 4.956,0.502 3.91,3.021 -1.102,2.656 -2.435,5.241 -3.684,7.838 2.704,-0.087 4.3,1.656 4.3,4.101"
             style="fill:#000000;fill-opacity:1;fill-rule:nonzero;stroke:none"
             id="path34"
             inkscape:connector-curvature="0" /></g><g
           style="fill:#000000;fill-opacity:1"
           id="g36"
           transform="translate(276.5737,425.895)"><path
             d="M 0,0 C -2.89,-1.959 -7.171,-3.383 -10.714,-3.759 -11.851,0.417 -12.517,2.767 -13.686,6.964 -10.396,6.913 5.86,4.011 0,0 m 6.043,3.7 c -2.568,4.768 -13.025,7.535 -21.099,7.918 -0.642,1.093 -1.144,2.234 -1.799,3.315 -2.028,3.346 -2.035,-1.722 -1.552,-3.365 -2.249,-0.269 -3.819,-0.741 -6.246,-1.685 -1.358,-0.529 -4.249,-2.231 -3.283,-2.901 0.756,-0.364 6.424,0.54 10.325,0.174 1.173,-3.358 1.809,-8.198 2.112,-11.28 -2.843,-0.715 -7.649,1.395 -9.959,-0.291 -1.875,-1.366 -0.639,-3.618 0.77,-4.564 1.367,-0.911 5.246,-0.712 6.938,-0.69 4.625,0.059 9.888,0.957 14.184,2.573 C 0.133,-5.705 8.87,-1.539 6.043,3.7"
             style="fill:#000000;fill-opacity:1;fill-rule:nonzero;stroke:none"
             id="path38"
             inkscape:connector-curvature="0" /></g><g
           style="fill:#000000;fill-opacity:1"
           id="g40"
           transform="translate(382.8086,440.2666)"><path
             d="m 0,0 c -1.662,4.152 -12.051,6.867 -13.286,2.876 -0.54,-1.75 1.452,-1.938 4.109,-2.824 2.238,-0.745 7.667,-3.727 0.532,-6.602 -5.568,-2.242 -9.05,-1.81 -13.841,-0.532 -6.815,1.81 -9.518,9.277 -1.578,11.166 2.499,0.595 0.931,2.431 -0.794,2.911 -3.145,0.877 -6.443,-0.208 -8.413,-2.819 -4.188,-5.546 3.046,-13.857 8.555,-14.832 0.118,-0.021 1.321,-5.492 1.628,-6.4 1.149,-3.446 3.619,-6.174 5.865,-8.321 0.633,-0.603 2.489,-1.356 3.047,-0.238 1.006,2.01 -5.117,8.277 -4.717,13.851 C -13.096,-13.343 3.813,-9.85 0,0"
             style="fill:#000000;fill-opacity:1;fill-rule:nonzero;stroke:none"
             id="path42"
             inkscape:connector-curvature="0" /></g><g
           style="fill:#000000;fill-opacity:1"
           id="g44"
           transform="translate(319.0205,423.6392)"><path
             d="m 0,0 c -0.478,1.394 -4.712,15.556 -7.465,13.195 -2.071,-4.135 1.323,-12.82 2.997,-16.576 0.65,-1.46 2.226,-5.207 4.444,-4.384 C 2.558,-6.806 0.556,-1.636 0,0"
             style="fill:#000000;fill-opacity:1;fill-rule:nonzero;stroke:none"
             id="path46"
             inkscape:connector-curvature="0" /></g><g
           style="fill:#000000;fill-opacity:1"
           id="g48"
           transform="translate(385.1045,445.062)"><path
             d="m 0,0 0,0.947 0.634,0 c 0.324,0 0.671,-0.07 0.671,-0.448 C 1.305,0.029 0.952,0 0.558,0 L 0,0 z m 0,-0.396 0.534,0 0.812,-1.33 0.515,0 -0.866,1.351 c 0.449,0.057 0.789,0.296 0.789,0.845 0,0.605 -0.355,0.874 -1.08,0.874 l -1.169,0 0,-3.07 0.465,0 0,1.33 z m 0.563,-2.45 c 1.446,0 2.686,1.12 2.686,2.661 0,1.529 -1.24,2.649 -2.686,2.649 -1.46,0 -2.693,-1.12 -2.693,-2.649 0,-1.541 1.233,-2.661 2.693,-2.661 m -2.16,2.661 c 0,1.26 0.944,2.209 2.16,2.209 1.201,0 2.153,-0.949 2.153,-2.209 0,-1.281 -0.952,-2.223 -2.153,-2.223 -1.216,0 -2.16,0.942 -2.16,2.223"
             style="fill:#000000;fill-opacity:1;fill-rule:nonzero;stroke:none"
             id="path50"
             inkscape:connector-curvature="0" /></g></g><g
         transform="translate(225.9731,391.1182)"
         id="g52"><path
           inkscape:connector-curvature="0"
           id="path54"
           style="fill:#201f1f;fill-opacity:1;fill-rule:nonzero;stroke:none"
           d="m 0,0 10.856,0 0.047,-7.884" /></g><g
         transform="translate(368.5156,391.0801)"
         id="g56"><path
           inkscape:connector-curvature="0"
           id="path58"
           style="fill:#201f1f;fill-opacity:1;fill-rule:nonzero;stroke:none"
           d="m 0,0 -10.855,0 -0.047,-7.885" /></g><path
         style="fill:url(#linearGradient4422);fill-opacity:1;stroke:none;opacity:0.16064257"
         d="m 226.2922,401.0756 -20.911,0 9.892,-10.043 -9.892,-7.8375 31.4949,0.0395 -10.903,7.8836 z"
         id="path4392"
         inkscape:connector-curvature="0" /><path
         style="fill:url(#linearGradient4420);stroke:none;stroke-width:1px;stroke-linecap:butt;stroke-linejoin:miter;stroke-opacity:1;fill-opacity:1;opacity:0.16064257"
         d="m 204.69876,69.952775 25.39624,4e-6 -12.98874,12.553746 12.98874,9.7475 -39.8042,0 13.6272,-9.806875 z"
         id="path4412"
         inkscape:connector-curvature="0"
         transform="matrix(0.8,0,0,-0.8,205.3812,457.03782)" /></g></g></svg>